<svg width="115" height="19" viewBox="0 0 115 19" fill="none" xmlns="http://www.w3.org/2000/svg">
<path d="M-4.44055e-05 18.4517V0.99716H11.7613V4.03977H3.6903V8.19886H11.1562V11.2415H3.6903V15.4091H11.7954V18.4517H-4.44055e-05ZM18.3812 5.3608L20.7846 9.9375L23.2477 5.3608H26.9721L23.1795 11.9063L27.0744 18.4517H23.367L20.7846 13.9261L18.2448 18.4517H14.4948L18.3812 11.9063L14.6312 5.3608H18.3812ZM35.2944 18.7074C33.9535 18.7074 32.8 18.4233 31.8341 17.8551C30.8739 17.2813 30.1353 16.4858 29.6182 15.4688C29.1069 14.4517 28.8512 13.2813 28.8512 11.9574C28.8512 10.6165 29.1097 9.44034 29.6267 8.42898C30.1495 7.41193 30.891 6.61932 31.8512 6.05114C32.8114 5.47727 33.9535 5.19034 35.2773 5.19034C36.4194 5.19034 37.4194 5.39773 38.2773 5.8125C39.1353 6.22727 39.8142 6.80966 40.3142 7.55966C40.8142 8.30966 41.0898 9.19034 41.141 10.2017H37.7148C37.6182 9.5483 37.3625 9.02273 36.9478 8.625C36.5387 8.22159 36.0017 8.01989 35.337 8.01989C34.7745 8.01989 34.283 8.1733 33.8625 8.48011C33.4478 8.78125 33.1239 9.22159 32.891 9.80114C32.658 10.3807 32.5415 11.0824 32.5415 11.9063C32.5415 12.7415 32.6552 13.4517 32.8824 14.0369C33.1154 14.6222 33.4421 15.0682 33.8625 15.375C34.283 15.6818 34.7745 15.8352 35.337 15.8352C35.7517 15.8352 36.1239 15.75 36.4535 15.5795C36.7887 15.4091 37.0642 15.1619 37.2802 14.8381C37.5017 14.5085 37.6466 14.1136 37.7148 13.6534H41.141C41.0841 14.6534 40.8114 15.5341 40.3228 16.2955C39.8398 17.0511 39.1722 17.642 38.3199 18.0682C37.4677 18.4943 36.4591 18.7074 35.2944 18.7074ZM47.8162 0.99716V18.4517H44.1855V0.99716H47.8162ZM59.8395 12.8778V5.3608H63.4702V18.4517H59.9844V16.0739H59.848C59.5525 16.8409 59.0611 17.4574 58.3736 17.9233C57.6917 18.3892 56.8594 18.6222 55.8764 18.6222C55.0014 18.6222 54.2315 18.4233 53.5667 18.0256C52.902 17.6278 52.3821 17.0625 52.0071 16.3295C51.6378 15.5966 51.4503 14.7188 51.4446 13.696V5.3608H55.0753V13.0483C55.081 13.821 55.2883 14.4318 55.6974 14.8807C56.1065 15.3295 56.6548 15.554 57.3423 15.554C57.7798 15.554 58.1889 15.4545 58.5696 15.2557C58.9503 15.0511 59.2571 14.75 59.49 14.3523C59.7287 13.9545 59.8452 13.4631 59.8395 12.8778ZM77.9863 9.09375L74.6625 9.2983C74.6056 9.01421 74.4835 8.75852 74.296 8.53125C74.1085 8.2983 73.8613 8.11364 73.5545 7.97727C73.2534 7.83523 72.8926 7.76421 72.4721 7.76421C71.9096 7.76421 71.4352 7.88352 71.0488 8.12216C70.6625 8.35511 70.4693 8.66761 70.4693 9.05966C70.4693 9.37216 70.5943 9.63636 70.8443 9.85227C71.0943 10.0682 71.5232 10.2415 72.1312 10.3722L74.5005 10.8494C75.7732 11.1108 76.7221 11.5313 77.3471 12.1108C77.9721 12.6903 78.2846 13.4517 78.2846 14.3949C78.2846 15.2528 78.0318 16.0057 77.5261 16.6534C77.0261 17.3011 76.3386 17.8068 75.4636 18.1705C74.5943 18.5284 73.5914 18.7074 72.4551 18.7074C70.7221 18.7074 69.3414 18.3466 68.313 17.625C67.2903 16.8977 66.6909 15.9091 66.5147 14.6591L70.0857 14.4716C70.1937 15 70.4551 15.4034 70.8698 15.6818C71.2846 15.9545 71.8159 16.0909 72.4636 16.0909C73.1 16.0909 73.6113 15.9688 73.9977 15.7244C74.3897 15.4744 74.5886 15.1534 74.5943 14.7614C74.5886 14.4318 74.4494 14.1619 74.1767 13.9517C73.9039 13.7358 73.4835 13.571 72.9153 13.4574L70.6482 13.0057C69.3698 12.75 68.4181 12.3068 67.7931 11.6761C67.1738 11.0455 66.8642 10.2415 66.8642 9.26421C66.8642 8.4233 67.0914 7.69886 67.546 7.09091C68.0062 6.48296 68.6511 6.01421 69.4806 5.68466C70.3159 5.35511 71.2931 5.19034 72.4125 5.19034C74.0659 5.19034 75.367 5.53977 76.3159 6.23864C77.2704 6.9375 77.8272 7.88921 77.9863 9.09375ZM81.2908 18.4517V5.3608H84.9215V18.4517H81.2908ZM83.1147 3.6733C82.5749 3.6733 82.1119 3.49432 81.7255 3.13636C81.3448 2.77273 81.1545 2.33807 81.1545 1.83239C81.1545 1.33239 81.3448 0.90341 81.7255 0.545456C82.1119 0.181819 82.5749 4.76837e-07 83.1147 4.76837e-07C83.6545 4.76837e-07 84.1147 0.181819 84.4954 0.545456C84.8817 0.90341 85.0749 1.33239 85.0749 1.83239C85.0749 2.33807 84.8817 2.77273 84.4954 3.13636C84.1147 3.49432 83.6545 3.6733 83.1147 3.6733ZM100.754 5.3608L96.1777 18.4517H92.0868L87.5101 5.3608H91.3454L94.0641 14.7273H94.2005L96.9107 5.3608H100.754ZM108.876 18.7074C107.53 18.7074 106.371 18.4347 105.399 17.8892C104.433 17.3381 103.689 16.5597 103.166 15.554C102.643 14.5426 102.382 13.3466 102.382 11.9659C102.382 10.6193 102.643 9.4375 103.166 8.42046C103.689 7.40341 104.425 6.6108 105.374 6.04261C106.328 5.47443 107.447 5.19034 108.732 5.19034C109.595 5.19034 110.399 5.32955 111.143 5.60796C111.893 5.88068 112.547 6.29261 113.104 6.84375C113.666 7.39489 114.104 8.08807 114.416 8.9233C114.729 9.75284 114.885 10.7244 114.885 11.8381V12.8352H103.831V10.5852H111.467C111.467 10.0625 111.354 9.59943 111.126 9.19602C110.899 8.79261 110.584 8.47727 110.18 8.25C109.783 8.01705 109.32 7.90057 108.791 7.90057C108.24 7.90057 107.751 8.02841 107.325 8.28409C106.905 8.53409 106.575 8.87216 106.337 9.2983C106.098 9.71875 105.976 10.1875 105.97 10.7045V12.8438C105.97 13.4915 106.09 14.0511 106.328 14.5227C106.572 14.9943 106.916 15.358 107.359 15.6136C107.803 15.8693 108.328 15.9972 108.936 15.9972C109.34 15.9972 109.709 15.9403 110.044 15.8267C110.379 15.7131 110.666 15.5426 110.905 15.3153C111.143 15.0881 111.325 14.8097 111.45 14.4801L114.808 14.7017C114.638 15.5085 114.288 16.2131 113.76 16.8153C113.237 17.4119 112.561 17.8778 111.732 18.2131C110.908 18.5426 109.956 18.7074 108.876 18.7074Z" fill="black"/>
</svg>
